
<svg version="1.0" xmlns="http://www.w3.org/2000/svg" width="24px" height="24px" viewBox="0 0 518.000000 518.000000"
    preserveAspectRatio="xMidYMid meet">

    <g transform="translate(0.000000,518.000000) scale(0.100000,-0.100000)" fill="#00B5E2">
        <path d="M2325 5129 c-800 -83 -1501 -518 -1927 -1196 -471 -748 -515 -1716
-115 -2503 455 -895 1383 -1445 2377 -1406 267 10 464 45 710 126 770 253
1377 859 1631 1630 90 276 124 489 124 800 0 310 -34 525 -124 798 -128 388
-324 708 -614 1001 -399 404 -893 653 -1462 737 -123 18 -478 26 -600 13z
m848 -1089 c288 -19 456 -82 610 -228 156 -149 228 -332 247 -629 13 -195 13
-1006 0 -1204 -17 -274 -83 -454 -216 -598 -155 -167 -337 -241 -641 -261
-192 -12 -1014 -12 -1206 0 -288 19 -456 82 -610 228 -156 149 -228 332 -247
629 -12 192 -12 1014 0 1206 19 297 91 480 247 629 149 142 327 211 587 227
178 12 1057 12 1229 1z" />
        <path d="M2205 3779 c-372 -7 -425 -14 -551 -76 -74 -36 -171 -133 -207 -207
-61 -125 -68 -178 -76 -564 -4 -193 -4 -511 0 -705 6 -308 10 -362 27 -429 57
-212 177 -333 391 -390 67 -18 117 -21 429 -27 193 -3 511 -3 705 0 313 6 361
9 430 28 208 55 333 180 388 388 19 69 22 118 28 431 3 193 3 511 0 705 -7
389 -14 439 -79 566 -38 77 -129 167 -204 204 -113 55 -190 68 -431 73 -456 9
-518 9 -850 3z m1212 -250 c38 -14 83 -57 99 -96 49 -113 -38 -243 -161 -243
-94 0 -175 80 -175 174 0 121 124 208 237 165z m-604 -236 c121 -42 188 -85
283 -178 92 -91 149 -181 191 -300 26 -74 28 -91 28 -235 0 -144 -2 -161 -28
-235 -40 -115 -100 -209 -186 -296 -87 -86 -181 -146 -296 -186 -74 -26 -91
-28 -235 -28 -144 0 -161 2 -235 28 -115 40 -209 100 -296 186 -86 87 -146
181 -186 296 -26 74 -28 91 -28 235 0 149 1 159 31 243 40 111 83 182 162 268
100 109 218 179 367 220 56 15 96 18 205 16 120 -3 144 -7 223 -34z" />
        <path d="M2452 3054 c-181 -48 -309 -178 -357 -360 -41 -160 9 -338 130 -459
192 -192 498 -192 690 0 192 192 192 498 0 690 -122 122 -303 172 -463 129z" />
    </g>
</svg>