
<svg version="1.0" xmlns="http://www.w3.org/2000/svg" width="24px" height="24px"
    viewBox="0 0 507.000000 499.000000" preserveAspectRatio="xMidYMid meet">

    <g transform="translate(0.000000,499.000000) scale(0.100000,-0.100000)" fill="#00B5E2" stroke="none">
        <path d="M2220 4983 c-83 -9 -337 -65 -427 -94 -405 -129 -732 -328 -1028
-624 -282 -282 -482 -603 -605 -972 -267 -801 -116 -1665 408 -2342 85 -110
302 -327 412 -412 368 -285 757 -449 1235 -520 135 -21 520 -18 665 5 267 41
513 117 745 231 761 373 1266 1078 1387 1935 19 141 17 516 -5 655 -86 544
-307 999 -674 1385 -321 338 -761 591 -1218 700 -213 51 -307 60 -596 58 -145
0 -280 -3 -299 -5z m510 -893 c714 -74 1273 -590 1392 -1285 28 -168 22 -440
-15 -595 -72 -302 -202 -535 -422 -756 -226 -227 -486 -366 -811 -436 -95 -20
-136 -23 -314 -22 -172 0 -221 4 -307 22 -121 26 -268 75 -377 125 l-79 37
-434 -137 c-238 -75 -435 -134 -438 -131 -3 3 58 185 135 406 77 220 140 405
140 410 0 5 -27 65 -59 133 -64 135 -110 273 -138 414 -24 124 -24 403 1 535
91 494 420 919 877 1134 265 125 561 176 849 146z" />
        <path d="M2350 3846 c-351 -63 -648 -240 -855 -510 -328 -429 -355 -1024 -66
-1473 28 -44 51 -84 51 -90 0 -5 -34 -114 -76 -242 -41 -128 -74 -235 -71
-237 2 -2 116 31 253 74 l250 78 107 -56 c203 -107 395 -153 632 -153 378 2
716 146 973 417 401 424 472 1040 177 1541 -193 326 -498 548 -875 637 -111
26 -390 33 -500 14z m-237 -618 c9 -7 53 -98 97 -203 63 -148 79 -194 72 -210
-5 -11 -41 -57 -81 -103 -39 -45 -71 -86 -71 -90 0 -5 16 -34 35 -66 110 -182
286 -334 495 -426 39 -17 79 -28 88 -25 9 3 48 46 85 96 105 138 84 135 293
40 98 -45 188 -88 201 -96 27 -18 30 -54 9 -130 -30 -113 -97 -193 -201 -242
-55 -26 -69 -28 -180 -28 -109 1 -128 4 -215 34 -133 46 -298 130 -410 209
-115 81 -311 274 -403 397 -79 105 -160 262 -183 354 -10 42 -15 94 -12 155 2
77 8 101 34 156 35 72 92 143 138 171 37 23 182 27 209 7z" />
    </g>
</svg>