<?xml version="1.0" standalone="no"?>
<!DOCTYPE svg PUBLIC "-//W3C//DTD SVG 20010904//EN"
 "http://www.w3.org/TR/2001/REC-SVG-20010904/DTD/svg10.dtd">
<svg version="1.0" xmlns="http://www.w3.org/2000/svg"
 width="22" height="22" viewBox="0 0 274.000000 544.000000"
 preserveAspectRatio="xMidYMid meet">

<g transform="translate(0.000000,544.000000) scale(0.100000,-0.100000)"
fill="#BABABA" stroke="none">
<path d="M1280 5199 c-27 -7 -153 -128 -583 -562 -362 -364 -555 -566 -568
-592 -45 -97 6 -227 104 -264 40 -15 122 -14 160 3 18 8 192 174 392 375 l360
361 5 -2147 5 -2148 24 -38 c13 -21 42 -50 64 -65 34 -23 52 -27 107 -27 55 0
73 4 107 27 22 15 51 44 64 65 l24 38 5 2148 5 2147 360 -361 c200 -201 374
-367 392 -375 38 -17 120 -18 160 -3 97 36 149 166 105 261 -19 42 -1051 1094
-1113 1135 -42 28 -124 38 -179 22z"/>
</g>
</svg>
