<?xml version="1.0" standalone="no"?>
<!DOCTYPE svg PUBLIC "-//W3C//DTD SVG 20010904//EN"
 "http://www.w3.org/TR/2001/REC-SVG-20010904/DTD/svg10.dtd">
<svg version="1.0" xmlns="http://www.w3.org/2000/svg"
 width="28" height="28" viewBox="0 0 350.000000 380.000000"
 preserveAspectRatio="xMidYMid meet">

<g transform="translate(0.000000,380.000000) scale(0.100000,-0.100000)"
fill="#01B5E1" stroke="none">
<path d="M1613 3379 c-252 -42 -485 -272 -541 -534 -31 -147 -18 -360 34 -545
33 -117 121 -291 188 -372 136 -165 281 -235 466 -226 85 4 105 9 173 42 173
83 325 279 401 517 61 192 82 434 51 574 -79 363 -420 603 -772 544z m-214
-459 c129 -44 224 -62 341 -63 124 -1 190 13 284 59 54 27 71 32 78 22 5 -7
32 -58 58 -113 54 -111 85 -214 75 -252 -5 -20 2 -16 36 23 23 27 44 51 47 54
2 3 2 -32 -2 -78 -31 -385 -218 -682 -476 -758 -87 -25 -208 -16 -290 22 -154
73 -270 216 -346 430 -30 84 -71 270 -62 279 2 2 22 -4 44 -14 l41 -19 -5 137
c-4 108 -1 149 11 192 17 57 50 109 69 109 6 0 49 -13 97 -30z"/>
<path d="M1174 1760 c-25 -10 -86 -99 -120 -176 -38 -86 -65 -196 -67 -275
l-2 -73 31 -6 c74 -16 147 -85 198 -188 33 -66 66 -190 66 -248 0 -37 -5 -47
-31 -66 -23 -17 -29 -28 -24 -45 6 -27 -25 -63 -54 -63 -22 0 -51 35 -51 62 0
22 45 52 65 44 9 -3 27 1 41 10 19 13 24 25 24 60 0 148 -81 309 -187 371 -55
32 -149 37 -198 11 -50 -27 -112 -97 -145 -164 -28 -57 -60 -183 -60 -237 0
-26 32 -48 72 -51 34 -3 48 -19 48 -58 0 -53 -83 -64 -96 -13 -3 14 -4 31 -1
39 3 8 -7 26 -24 40 -28 25 -29 30 -23 79 11 91 33 176 60 229 36 70 116 153
169 173 l42 17 7 71 c14 146 57 284 122 382 18 28 29 51 25 53 -15 5 -145 -49
-211 -88 -266 -157 -434 -450 -434 -760 0 -284 112 -410 417 -468 83 -15 174
-17 912 -17 879 0 916 2 1064 51 134 45 209 117 253 244 33 93 33 299 0 415
-77 269 -259 476 -517 587 -33 14 -75 29 -93 33 l-33 7 39 -59 c54 -79 70
-113 107 -217 29 -85 33 -90 65 -99 132 -34 188 -205 103 -315 -68 -89 -231
-97 -305 -15 -30 32 -50 96 -50 151 0 62 34 123 83 150 65 36 63 32 44 98 -23
82 -85 197 -145 272 -28 34 -54 62 -58 62 -4 0 -13 -19 -19 -42 -18 -67 -73
-122 -166 -168 -130 -63 -187 -75 -372 -75 -124 0 -175 4 -225 19 -163 45
-280 134 -299 227 -7 36 -16 42 -47 29z m998 -877 l3 -68 68 -3 67 -3 0 -54 0
-55 -70 0 -70 0 0 -70 0 -70 -55 0 -55 0 0 70 0 70 -70 0 -70 0 0 55 0 55 70
0 70 0 0 70 0 70 55 0 54 0 3 -67z"/>
</g>
</svg>
