<?xml version="1.0" standalone="no"?>
<!DOCTYPE svg PUBLIC "-//W3C//DTD SVG 20010904//EN"
 "http://www.w3.org/TR/2001/REC-SVG-20010904/DTD/svg10.dtd">
<svg version="1.0" xmlns="http://www.w3.org/2000/svg"
 width="90px" height="80px" viewBox="0 0 757.000000 207.000000"
 preserveAspectRatio="xMidYMid meet">

<g transform="translate(0.000000,207.000000) scale(0.100000,-0.100000)"
fill="#000000" stroke="none">
<path d="M2340 1030 l0 -1030 30 0 30 0 0 1030 0 1030 -30 0 -30 0 0 -1030z"/>
<path d="M393 1941 c-175 -50 -328 -214 -374 -401 -18 -71 -16 -252 4 -356 36
-184 126 -407 320 -789 141 -278 162 -305 231 -305 40 0 91 31 110 68 16 32
60 215 107 446 44 219 89 296 172 296 44 0 76 -26 109 -87 27 -50 31 -67 99
-378 23 -106 53 -214 68 -245 45 -94 121 -125 192 -77 34 23 85 113 304 547
137 273 199 464 211 655 15 234 -73 433 -244 549 -143 98 -291 119 -507 71
-159 -35 -277 -35 -444 0 -147 30 -267 32 -358 6z m337 -81 c190 -38 302 -40
450 -6 156 35 223 40 308 22 183 -38 328 -180 372 -364 15 -67 16 -230 0 -308
-34 -173 -113 -369 -249 -624 -49 -91 -112 -212 -141 -270 -29 -58 -59 -113
-68 -122 -21 -25 -59 -22 -76 4 -14 22 -57 202 -112 458 -39 185 -84 269 -168
312 -83 43 -168 17 -227 -68 -47 -69 -58 -104 -110 -349 -76 -367 -79 -375
-124 -375 l-34 0 -113 223 c-163 321 -230 466 -277 602 -125 354 -106 594 60
756 88 87 198 134 322 138 21 0 105 -12 187 -29z"/>
<path d="M448 1720 c-79 -24 -166 -109 -194 -191 -51 -147 15 -512 88 -484 28
11 29 33 2 123 -31 105 -43 260 -24 318 20 65 57 112 113 144 64 37 136 40
250 11 97 -25 265 -46 299 -38 14 4 28 13 31 22 11 26 -21 43 -90 49 -38 4
-124 17 -193 31 -125 25 -231 31 -282 15z"/>
<path d="M4683 1508 c-133 -49 -201 -131 -211 -254 -11 -142 42 -215 216 -295
194 -90 216 -102 235 -137 27 -46 16 -97 -26 -122 -60 -37 -187 -20 -309 40
-59 29 -62 30 -81 13 -24 -22 -67 -106 -67 -131 0 -23 40 -52 110 -80 115 -45
229 -59 340 -41 189 29 291 134 292 301 1 79 -14 126 -57 182 -36 47 -98 84
-235 141 -153 64 -180 84 -180 135 0 45 31 75 87 86 43 8 172 -18 240 -48 l47
-21 27 32 c26 32 49 91 49 129 0 16 -17 26 -87 52 -76 28 -104 33 -208 37
-107 3 -127 1 -182 -19z"/>
<path d="M2702 1512 c-9 -6 -12 -114 -10 -503 l3 -494 250 0 c214 0 257 3 301
18 111 38 174 130 177 256 3 100 -28 163 -114 231 l-49 39 30 21 c70 50 105
165 79 257 -17 62 -86 133 -154 158 -42 16 -87 19 -275 22 -124 2 -231 0 -238
-5z m340 -162 c43 0 54 -4 79 -31 41 -44 41 -110 0 -159 -28 -34 -31 -35 -115
-39 l-86 -3 0 114 c0 63 3 118 7 122 5 4 21 5 37 2 16 -3 51 -6 78 -6z m83
-416 c45 -21 69 -77 63 -144 -9 -88 -59 -120 -188 -120 l-80 0 0 140 0 140 86
0 c57 0 97 -5 119 -16z"/>
<path d="M3829 1513 c-14 -3 -54 -120 -289 -842 -22 -68 -40 -129 -40 -136 0
-8 9 -17 21 -20 32 -10 122 -14 159 -6 32 6 34 9 63 109 l30 102 163 0 163 0
16 -57 c36 -124 77 -164 167 -162 49 0 113 20 112 34 -1 6 -70 227 -155 492
-128 401 -157 483 -174 487 -23 7 -212 6 -236 -1z m125 -265 c54 -194 86 -317
86 -327 0 -7 -33 -11 -105 -11 -58 0 -105 2 -105 4 0 3 16 60 35 127 20 67 43
153 51 191 9 37 17 68 20 68 2 0 10 -24 18 -52z"/>
<path d="M5353 1514 c-10 -5 -13 -115 -13 -505 l0 -499 115 0 115 0 0 210 0
211 156 -3 157 -3 1 -205 1 -205 45 -7 c25 -4 78 -5 118 -1 l72 5 0 498 c0
445 -2 499 -16 504 -24 9 -197 7 -212 -3 -10 -6 -13 -49 -10 -194 l3 -187
-157 0 -158 0 -2 193 -3 192 -100 2 c-55 1 -106 -1 -112 -3z"/>
<path d="M6352 1512 c-10 -7 -12 -114 -10 -502 l3 -495 40 -7 c22 -4 75 -5
118 -2 l77 6 0 498 c0 445 -2 499 -16 504 -23 9 -197 7 -212 -2z"/>
<path d="M6820 1511 c-13 -9 -15 -77 -18 -493 -1 -275 2 -489 7 -497 7 -10 34
-14 109 -14 55 1 105 4 111 7 7 5 11 68 11 187 l0 179 45 0 c57 0 100 -21 120
-60 8 -16 33 -80 55 -142 47 -133 75 -168 143 -175 35 -4 58 0 101 20 31 14
56 30 56 36 0 5 -13 29 -28 53 -16 24 -41 79 -57 123 -39 111 -60 149 -95 177
l-30 23 47 35 c93 69 133 168 115 282 -19 123 -65 187 -172 237 -53 25 -62 26
-280 29 -137 2 -231 -1 -240 -7z m336 -171 c45 0 59 -5 85 -28 27 -24 33 -37
37 -84 10 -121 -37 -167 -170 -168 l-68 0 0 146 0 147 31 -7 c17 -3 56 -6 85
-6z"/>
</g>
</svg>
