<?xml version="1.0" standalone="no"?>
<!DOCTYPE svg PUBLIC "-//W3C//DTD SVG 20010904//EN"
 "http://www.w3.org/TR/2001/REC-SVG-20010904/DTD/svg10.dtd">
<svg version="1.0" xmlns="http://www.w3.org/2000/svg"
 width="64" height="64" viewBox="0 0 670.000000 670.000000"
 preserveAspectRatio="xMidYMid meet">

<g transform="translate(0.000000,670.000000) scale(0.100000,-0.100000)"
fill="#01B5E1" stroke="none">
<path d="M520 6275 l0 -125 -110 0 -110 0 0 -2927 0 -2926 2143 8 c1178 4
2180 11 2227 15 47 3 -908 7 -2122 8 l-2208 2 0 2890 0 2890 90 0 90 0 0
-2785 0 -2785 1268 1 c1713 1 3128 14 3167 28 22 8 -555 10 -2177 7 l-2208 -4
0 2437 c0 1341 -3 2587 -7 2769 l-6 332 2775 0 2775 0 5 -907 c4 -566 9 -917
16 -933 7 -19 11 6 16 110 7 162 13 1245 9 1558 l-4 222 -2794 0 -2795 0 0 95
0 95 2890 0 2890 0 0 -757 c0 -825 7 -1128 24 -1078 6 19 11 373 13 958 l4
927 -2930 0 -2931 0 0 -125z"/>
<path d="M3189 4877 c-166 -70 -259 -212 -259 -397 0 -237 112 -460 269 -537
79 -39 173 -38 250 1 146 75 248 264 267 496 15 182 -80 357 -233 427 -84 39
-215 43 -294 10z m-43 -259 c48 -17 82 -22 179 -22 117 -1 138 3 206 41 12 7
73 -133 77 -180 l5 -48 23 22 24 22 0 -29 c0 -16 -7 -60 -15 -98 -72 -340
-372 -458 -550 -216 -43 58 -89 172 -99 243 -8 49 -5 53 22 38 16 -9 18 -1 17
93 0 81 4 107 18 129 21 33 19 32 93 5z"/>
<path d="M6346 3720 c-4 -173 -5 -954 -4 -1735 l3 -1420 -99 3 -99 3 6 1292
c5 1214 -2 1856 -21 1908 -11 29 -25 -2693 -16 -2981 l7 -215 -286 4 c-302 3
-445 -7 -272 -20 50 -4 195 -7 323 -8 l232 -1 0 -112 0 -113 -432 1 c-243 1
-407 -2 -373 -6 33 -4 232 -8 443 -9 l382 -1 0 68 c0 37 3 91 7 120 l6 53 103
-3 103 -3 8 65 c13 103 10 3359 -3 3395 -9 23 -13 -42 -18 -285z"/>
<path d="M2966 3921 c-35 -50 -73 -162 -78 -225 -3 -47 -2 -50 26 -57 33 -9
82 -52 102 -91 23 -45 16 -46 -11 -1 -46 77 -135 106 -198 64 -36 -23 -76 -83
-93 -135 -7 -23 -13 -32 -13 -21 -2 56 93 185 136 185 7 0 13 6 13 13 2 62 33
177 64 233 35 62 35 65 14 59 -70 -20 -156 -73 -218 -134 -102 -101 -150 -216
-151 -363 0 -132 40 -204 140 -247 87 -37 191 -43 697 -39 464 4 481 5 547 26
109 37 163 106 173 224 7 77 -14 184 -51 263 -31 65 -116 161 -182 204 -46 31
-152 75 -160 68 -2 -3 10 -25 27 -51 17 -25 41 -74 54 -108 15 -44 28 -64 41
-66 47 -9 91 -82 80 -132 -3 -15 -20 -40 -36 -56 -24 -23 -39 -29 -75 -29 -39
0 -50 5 -75 32 -16 18 -31 43 -35 57 -8 34 21 94 56 114 35 19 35 33 -4 117
-48 103 -116 170 -116 113 0 -12 -17 -38 -40 -59 -132 -126 -489 -101 -555 38
-11 23 -27 42 -36 43 -9 0 -28 -18 -43 -39z m84 -465 c0 -26 -6 -18 -14 19 -5
22 -4 26 4 15 5 -8 10 -24 10 -34z m530 -16 l0 -40 40 0 c38 0 40 -2 40 -30 0
-28 -2 -30 -40 -30 l-40 0 0 -40 c0 -38 -2 -40 -30 -40 -28 0 -30 2 -30 40 l0
40 -40 0 c-38 0 -40 2 -40 30 0 28 2 30 40 30 l40 0 0 40 c0 38 2 40 30 40 28
0 30 -2 30 -40z m-860 -81 c8 -4 23 -10 33 -13 25 -8 17 -40 -11 -44 -18 -3
-22 1 -22 21 0 14 -7 30 -15 37 -8 7 -14 27 -14 44 l2 31 6 -34 c3 -19 13 -37
21 -42z m337 24 c-3 -10 -5 -2 -5 17 0 19 2 27 5 18 2 -10 2 -26 0 -35z m-24
-35 c-4 -7 -8 -20 -8 -28 0 -20 -41 -25 -48 -6 -7 16 8 31 38 39 11 2 21 5 23
6 2 0 0 -5 -5 -11z"/>
<path d="M2415 2769 c-12 -6 -27 -20 -35 -32 -29 -47 -249 -612 -241 -620 4
-4 34 -7 67 -5 l58 3 25 62 24 62 96 3 c90 3 96 4 99 24 2 12 -5 39 -15 60
-17 37 -21 39 -71 42 -28 2 -52 6 -52 10 0 4 21 60 47 125 l47 118 101 -253
101 -253 62 -3 c57 -3 62 -1 62 18 0 11 -52 150 -116 308 -126 311 -145 343
-207 341 -17 0 -41 -5 -52 -10z"/>
<path d="M1416 2749 l-26 -20 0 -283 c0 -271 1 -284 21 -310 l20 -26 207 0
c231 0 263 7 292 65 22 44 20 200 -3 243 -16 29 -16 35 -2 62 20 38 20 178 1
225 -25 59 -50 65 -279 65 -192 0 -206 -1 -231 -21z m404 -114 c13 -16 10
-109 -4 -123 -4 -4 -53 -9 -109 -11 -62 -2 -105 -7 -109 -15 -13 -20 -8 -74 8
-90 12 -12 37 -16 108 -16 58 0 96 -4 104 -12 15 -15 16 -92 2 -119 -10 -17
-23 -19 -160 -19 l-150 0 0 210 0 210 149 0 c120 0 151 -3 161 -15z"/>
<path d="M3035 2749 c-41 -33 -55 -77 -54 -171 0 -99 14 -144 52 -172 25 -19
46 -22 180 -26 l152 -5 3 -67 c2 -38 2 -69 0 -70 -2 -1 -88 -4 -193 -7 l-190
-6 0 -55 0 -55 208 -3 c231 -3 253 2 283 61 22 42 30 161 15 225 -8 31 -23 60
-42 78 l-30 29 -155 3 -155 3 3 67 3 67 180 5 180 5 0 55 0 55 -206 3 c-199 2
-207 2 -234 -19z"/>
<path d="M3685 2757 c-3 -7 -4 -154 -3 -327 l3 -315 56 -3 c69 -4 69 -4 69
156 l0 112 145 0 144 0 3 -132 3 -133 54 -3 c37 -2 57 1 62 10 11 17 11 619 0
636 -5 9 -25 12 -62 10 l-54 -3 -3 -127 -3 -128 -144 0 -145 0 0 114 c0 63 -3
121 -6 130 -8 20 -112 23 -119 3z"/>
<path d="M4415 2757 c-3 -7 -4 -154 -3 -327 l3 -315 55 0 55 0 3 328 2 327
-55 0 c-36 0 -57 -5 -60 -13z"/>
<path d="M4724 2756 c-3 -7 -4 -33 -2 -57 l3 -44 194 -3 c123 -1 199 -6 208
-13 15 -13 18 -96 4 -118 -8 -12 -43 -14 -198 -13 -103 1 -194 -1 -201 -6 -9
-6 -12 -53 -10 -198 l3 -189 55 0 55 0 3 133 3 132 82 0 82 0 79 -136 78 -135
56 3 c43 2 58 7 60 19 2 9 -27 67 -63 128 -36 62 -65 116 -65 122 0 5 6 9 14
9 25 0 74 49 87 88 19 57 14 162 -10 216 -31 71 -50 76 -301 76 -170 0 -212
-3 -216 -14z"/>
<path d="M4373 1871 c-24 -32 -43 -64 -43 -70 0 -18 24 -12 38 9 9 14 23 20
50 20 26 0 41 -6 50 -20 11 -18 42 -28 42 -14 0 5 -92 135 -94 134 -1 0 -20
-27 -43 -59z m52 -1 c3 -5 1 -10 -4 -10 -6 0 -11 5 -11 10 0 6 2 10 4 10 3 0
8 -4 11 -10z"/>
<path d="M1780 1903 c0 -26 12 -40 43 -52 17 -7 27 -18 27 -31 0 -11 5 -20 10
-20 6 0 10 9 10 20 0 13 12 25 35 34 27 12 35 21 35 40 0 15 -4 26 -10 26 -5
0 -10 -4 -10 -9 0 -19 -32 -41 -60 -41 -19 0 -35 9 -48 25 -23 29 -32 32 -32
8z"/>
<path d="M2167 1913 c-15 -14 -6 -74 13 -93 30 -30 113 -28 134 2 21 30 21 98
1 98 -10 0 -15 -10 -15 -32 0 -18 -4 -38 -8 -44 -12 -18 -48 -25 -76 -15 -22
9 -26 16 -26 51 0 38 -8 49 -23 33z"/>
<path d="M2360 1855 c0 -51 3 -65 15 -65 9 0 15 9 15 25 0 30 25 33 48 6 10
-11 32 -22 50 -26 28 -6 32 -4 32 14 0 17 -7 21 -32 22 l-33 1 30 7 c21 4 31
13 33 29 6 40 -14 52 -89 52 l-69 0 0 -65z m130 25 c0 -5 -22 -10 -50 -10 -27
0 -50 5 -50 10 0 6 23 10 50 10 28 0 50 -4 50 -10z"/>
<path d="M2656 1904 c-35 -35 -4 -63 72 -66 l57 -2 -70 -5 c-53 -5 -70 -10
-70 -21 0 -11 15 -16 62 -18 73 -3 103 9 103 42 0 29 -16 36 -81 36 -27 0 -49
5 -49 10 0 6 28 10 65 10 51 0 65 3 65 15 0 22 -132 21 -154 -1z"/>
<path d="M2965 1891 l-40 -29 -35 24 c-19 13 -38 24 -43 24 -13 0 -3 -113 11
-118 8 -2 12 8 12 33 l0 36 29 -17 c28 -16 31 -16 55 0 l26 16 0 -35 c0 -24 5
-35 15 -35 12 0 15 14 15 65 0 36 -1 65 -2 65 -2 -1 -21 -14 -43 -29z"/>
<path d="M3040 1856 c0 -53 3 -66 15 -66 13 0 15 11 13 62 -2 38 -8 63 -15 66
-10 3 -13 -14 -13 -62z"/>
<path d="M3100 1855 l0 -66 82 3 c54 2 83 7 86 16 3 9 -15 12 -67 12 l-71 0 0
50 c0 38 -4 50 -15 50 -12 0 -15 -14 -15 -65z"/>
<path d="M3294 1906 c-3 -7 -4 -35 -2 -62 l3 -49 83 -3 c68 -2 82 0 82 13 0
12 -14 15 -70 15 -40 0 -70 4 -70 10 0 6 23 10 50 10 38 0 50 4 50 15 0 11
-12 15 -50 15 -27 0 -50 5 -50 10 0 6 30 10 70 10 56 0 70 3 70 15 0 21 -158
22 -166 1z"/>
<path d="M3850 1895 c0 -19 9 -29 35 -42 24 -12 34 -22 32 -37 -3 -29 27 -27
31 2 2 13 14 27 28 32 20 8 44 44 44 66 0 13 -31 1 -40 -16 -20 -38 -100 -34
-100 5 0 8 -7 15 -15 15 -9 0 -15 -9 -15 -25z"/>
<path d="M4182 1909 c-59 -17 -63 -81 -6 -105 44 -19 124 -19 124 0 0 9 -17
15 -55 18 -60 5 -81 18 -72 42 5 12 21 16 67 16 53 0 60 2 60 20 0 17 -6 20
-42 19 -24 0 -58 -5 -76 -10z"/>
<path d="M4532 1859 c2 -39 8 -64 16 -67 7 -2 12 6 12 22 0 21 5 26 25 26 15
0 25 -6 25 -15 0 -14 15 -20 64 -27 37 -6 27 20 -11 27 l-38 7 35 12 c19 6 36
18 38 27 6 32 -23 46 -98 48 l-71 2 3 -62z m138 21 c0 -5 -25 -10 -55 -10 -30
0 -55 5 -55 10 0 6 25 10 55 10 30 0 55 -4 55 -10z"/>
<path d="M1974 1896 c-3 -8 -4 -31 -2 -52 l3 -39 54 -3 c84 -5 101 2 101 42 0
62 -5 66 -81 66 -50 0 -71 -4 -75 -14z m126 -42 l0 -35 -52 3 c-42 2 -54 7
-56 21 -7 37 5 47 58 47 l50 0 0 -36z"/>
<path d="M3650 1850 c0 -47 3 -60 15 -60 10 0 15 11 15 35 l0 35 26 -17 c25
-16 28 -16 55 0 l29 16 0 -34 c0 -24 5 -35 15 -35 12 0 15 13 15 60 0 33 -3
60 -8 60 -4 0 -24 -11 -43 -24 l-36 -25 -36 25 c-20 13 -38 24 -41 24 -4 0 -6
-27 -6 -60z"/>
<path d="M4730 1855 l0 -55 85 0 c50 0 85 4 85 10 0 6 -30 10 -70 10 -40 0
-70 4 -70 10 0 6 20 10 45 10 33 0 45 4 45 15 0 11 -12 15 -45 15 -25 0 -45 5
-45 10 0 6 30 10 70 10 40 0 70 4 70 10 0 6 -35 10 -85 10 l-85 0 0 -55z"/>
<path d="M3497 1808 c-8 -29 15 -44 25 -17 8 22 3 39 -11 39 -5 0 -11 -10 -14
-22z"/>
</g>
</svg>
